<svg xmlns="http://www.w3.org/2000/svg" xmlns:xlink="http://www.w3.org/1999/xlink" version="1.1" x="0px" y="0px" viewBox="0 0 100 100" enable-background="new 0 0 100 100" xml:space="preserve"><g><path d="M86.293,39.719c-0.133-0.036-0.269-0.059-0.405-0.082c-0.001-0.031-0.002-0.061-0.003-0.091   c-0.045-1.375-0.091-2.796-0.091-4.22c0-4.386-0.882-8.479-2.5-12.157c0.096-0.168,0.166-0.353,0.166-0.561   c0-0.574-0.425-1.028-0.974-1.117C77.401,11.712,66.858,5.263,53.73,4.84v-0.03l-1.026,0.005l-0.275-0.005l-0.75,0.012V4.84   c-13.126,0.424-23.661,6.89-28.71,16.687c-0.458,0.152-0.792,0.57-0.792,1.08c0,0.142,0.034,0.275,0.081,0.4   c-1.64,3.69-2.536,7.801-2.536,12.211c0,1.479-0.059,2.962-0.118,4.401c-0.165,0.025-0.328,0.055-0.488,0.099   c-4.048,1.11-5.621,7.801-3.582,15.232c1.507,5.491,4.571,9.716,7.744,11.001c0.312,2.06,0.599,4.175,0.837,6.277   c0.083,0.735,0.248,1.447,0.456,2.145c-0.058,0.137-0.09,0.288-0.09,0.446c0,0.433,0.249,0.796,0.602,0.994   c2.267,5.372,7.771,9.538,11.648,12.466c0.017,0.013,0.033,0.025,0.05,0.038c0.108,0.524,0.55,0.926,1.107,0.926   c0.031,0,0.057-0.015,0.087-0.018c0.718,0.551,1.349,1.053,1.824,1.491c3.416,3.142,6.374,4.269,11.881,4.444v0.027l1.021-0.004   l0.28,0.004l0.75-0.009v-0.018c5.507-0.176,8.465-1.303,11.881-4.444c0.475-0.437,1.105-0.938,1.822-1.489   c0.028,0.002,0.052,0.016,0.081,0.016c0.554,0,0.994-0.398,1.104-0.918c0.021-0.016,0.04-0.03,0.061-0.046   c3.854-2.91,9.315-7.041,11.609-12.364c0.496-0.129,0.868-0.56,0.868-1.096c0-0.262-0.103-0.492-0.25-0.685   c0.173-0.622,0.315-1.254,0.389-1.906c0.238-2.102,0.525-4.217,0.836-6.277c3.172-1.286,6.236-5.51,7.743-11.002   C91.914,47.52,90.341,40.829,86.293,39.719z M16.979,54.554c-1.756-6.399-0.596-12.531,2.533-13.389   c0.01-0.003,0.021-0.001,0.031-0.004c-0.117,3.205-0.134,6.224,0.592,8.866c0.104,0.376,0.218,0.824,0.337,1.307   c-0.141,0.191-0.24,0.415-0.24,0.67c0,0.449,0.264,0.828,0.639,1.018c0.652,2.872,1.429,6.805,2.121,11.106   C20.579,62.624,18.189,58.96,16.979,54.554z M79.805,72.061c-0.045,0.398-0.114,0.79-0.203,1.178l-0.149-0.205l-0.323,0.235   l0.334,0.458c-0.011,0.039-0.022,0.078-0.034,0.116c-0.339,0.2-0.578,0.554-0.578,0.977c0,0.016,0.008,0.03,0.009,0.045   l-0.822,0.18l0.086,0.391l0.804-0.176c-2.107,4.952-7.335,8.938-11.06,11.75c-0.088-0.029-0.18-0.049-0.276-0.056l-0.078-0.734   l-0.397,0.042l0.079,0.74c-0.479,0.14-0.836,0.564-0.836,1.089c0,0.021,0.011,0.039,0.012,0.06c-0.686,0.53-1.296,1.02-1.777,1.462   c-3.287,3.023-6.004,3.974-11.627,4.066l-0.264,0.004L52.44,93.68c-5.623-0.092-8.34-1.042-11.627-4.066   c-0.475-0.437-1.076-0.919-1.75-1.441l0.003,0l-0.082-0.392l-0.008,0.001c-0.137-0.482-0.562-0.842-1.089-0.842   c-0.124,0-0.238,0.034-0.35,0.07c-3.673-2.774-8.815-6.688-10.976-11.545c0.046-0.066,0.102-0.126,0.133-0.202l0.587,0.131   l0.087-0.391l-0.595-0.133c0-0.017,0.01-0.032,0.01-0.049c0-0.525-0.357-0.949-0.837-1.088c-0.152-0.548-0.278-1.103-0.342-1.672   c-0.825-7.279-2.22-14.751-3.282-19.423c0.125-0.184,0.215-0.394,0.215-0.633c0-0.432-0.247-0.794-0.599-0.992   c-0.126-0.514-0.248-0.986-0.356-1.383c-0.77-2.8-0.631-6.207-0.484-9.813c0.061-1.496,0.124-3.042,0.124-4.597   c0-4.104,0.816-7.94,2.319-11.392l0.321-0.093l-0.03-0.103c0.234-0.116,0.423-0.304,0.533-0.54l0.69,0.342l0.178-0.358   l-0.771-0.382c0.002-0.03,0.018-0.056,0.018-0.086c0-0.135-0.034-0.261-0.077-0.381l0.83-0.473l-0.198-0.348l-0.415,0.236   c5.024-9.169,15.214-15.131,27.82-15.319l0.17-0.005l0.359,0.005C65.397,6.508,75.49,12.287,80.62,21.219l-0.1-0.054l-0.189,0.353   l0.64,0.344c0.082,0.152,0.165,0.303,0.244,0.456c-0.025,0.095-0.059,0.187-0.059,0.29c0,0.109,0.034,0.208,0.062,0.308   l-0.657,0.32l0.175,0.359l0.658-0.32c0.105,0.144,0.234,0.264,0.394,0.346l-0.059,0.191l0.235,0.073   c1.511,3.466,2.331,7.318,2.331,11.441c0,1.448,0.047,2.882,0.092,4.269c0.12,3.678,0.233,7.152-0.56,10.035   c-0.102,0.372-0.215,0.812-0.332,1.286c-0.48,0.139-0.838,0.563-0.838,1.089c0,0.337,0.151,0.634,0.382,0.845   C81.982,57.534,80.617,64.891,79.805,72.061z M88.429,54.554c-1.209,4.407-3.6,8.071-6.013,9.574   c0.705-4.385,1.499-8.392,2.159-11.277c0.233-0.211,0.385-0.508,0.385-0.847c0-0.151-0.033-0.293-0.086-0.425   c0.143-0.586,0.277-1.111,0.398-1.552c0.729-2.652,0.749-5.659,0.662-8.847C89.033,42.079,90.177,48.182,88.429,54.554z"></path><path d="M52.704,49.163c-0.287,0-0.541,0.115-0.742,0.289l-0.402-0.328l-0.253,0.31l0.405,0.331   c-0.093,0.166-0.16,0.348-0.16,0.551c0,0.636,0.517,1.152,1.152,1.152c0.637,0,1.153-0.516,1.153-1.152   S53.341,49.163,52.704,49.163z"></path><circle cx="67.512" cy="56.988" r="1.152"></circle><path d="M65.177,39.162c0,0.205,0.068,0.387,0.161,0.553l-0.38,0.311l0.253,0.31l0.377-0.309c0.202,0.173,0.455,0.288,0.741,0.288   c0.637,0,1.152-0.516,1.152-1.152c0-0.637-0.515-1.152-1.152-1.152C65.693,38.009,65.177,38.525,65.177,39.162z"></path><circle cx="39.038" cy="39.162" r="1.152"></circle><circle cx="52.728" cy="67.344" r="1.153"></circle><path d="M52.728,83.956c-0.368,0-0.681,0.183-0.892,0.451l-0.351-0.187l-0.188,0.353l0.349,0.186   c-0.037,0.112-0.071,0.226-0.071,0.35c0,0.636,0.516,1.152,1.153,1.152c0.637,0,1.151-0.516,1.151-1.152   C53.879,84.471,53.365,83.956,52.728,83.956z"></path><path d="M66.36,76.655c-0.637,0-1.152,0.516-1.152,1.153c0,0.134,0.034,0.259,0.077,0.379l-0.298,0.159l0.188,0.353l0.31-0.165   c0.207,0.25,0.507,0.417,0.856,0.423l0.037,0.346l0.397-0.042l-0.04-0.376c0.45-0.157,0.777-0.574,0.777-1.077   C67.513,77.171,66.998,76.655,66.36,76.655z"></path><circle cx="39.038" cy="77.808" r="1.153"></circle><circle cx="77.208" cy="39.162" r="1.152"></circle><circle cx="28.108" cy="39.162" r="1.152"></circle><path d="M58.923,63.092c0-0.153-0.033-0.298-0.087-0.431l0.308-0.193l-0.213-0.339l-0.313,0.196   c-0.211-0.233-0.508-0.385-0.847-0.385c-0.08,0-0.149,0.03-0.224,0.045l-0.233-0.588l-0.372,0.147l0.233,0.586   c-0.327,0.204-0.556,0.549-0.556,0.962c0,0.636,0.516,1.153,1.152,1.153S58.923,63.728,58.923,63.092z"></path><path d="M48.795,63.292h0.977v-0.4h-0.977c-0.059-0.326-0.246-0.596-0.518-0.764l0.224-0.571l-0.372-0.146l-0.225,0.573   c-0.074-0.015-0.143-0.044-0.221-0.044c-0.637,0-1.152,0.516-1.152,1.152c0,0.636,0.515,1.153,1.152,1.153   C48.249,64.245,48.697,63.829,48.795,63.292z"></path><path d="M39.038,14.815c0.565,0,1.014-0.415,1.111-0.952h0.787v-0.4h-0.787c-0.098-0.537-0.546-0.952-1.111-0.952   c-0.637,0-1.152,0.516-1.152,1.152C37.886,14.299,38.401,14.815,39.038,14.815z"></path><path d="M65.905,14.72l-0.048-0.014l-0.273,0.962l0.385,0.109l0.273-0.962l-0.297-0.084c0.129,0.05,0.268,0.084,0.416,0.084   c0.637,0,1.152-0.516,1.152-1.152c0-0.637-0.515-1.152-1.152-1.152c-0.637,0-1.152,0.516-1.152,1.152   C65.208,14.137,65.496,14.543,65.905,14.72z"></path><path d="M62.017,33.039c0-0.637-0.515-1.152-1.152-1.152c-0.566,0-1.014,0.415-1.112,0.952h-0.905v0.4h0.905   c0.098,0.537,0.546,0.952,1.112,0.952C61.502,34.192,62.017,33.675,62.017,33.039z"></path><circle cx="44.847" cy="33.039" r="1.152"></circle><rect x="48.522" y="46.565" transform="matrix(0.6327 -0.7744 0.7744 0.6327 -18.5516 55.0167)" width="0.4" height="1"></rect><rect x="42.024" y="41.807" transform="matrix(-0.7746 -0.6325 0.6325 -0.7746 48.8944 101.4402)" width="1" height="0.4"></rect><rect x="43.874" y="42.772" transform="matrix(-0.6327 0.7744 -0.7744 -0.6327 105.4681 36.5194)" width="0.4" height="1"></rect><rect x="45.123" y="44.336" transform="matrix(0.7748 0.6322 -0.6322 0.7748 38.4318 -18.8137)" width="1" height="0.4"></rect><rect x="46.972" y="45.301" transform="matrix(0.6327 -0.7744 0.7744 0.6327 -18.1414 53.3522)" width="0.4" height="1"></rect><rect x="40.474" y="40.543" transform="matrix(-0.7748 -0.6322 0.6322 -0.7748 46.9621 98.2141)" width="1" height="0.4"></rect><rect x="49.771" y="48.13" transform="matrix(-0.7748 -0.6322 0.6322 -0.7748 58.6651 117.5578)" width="1" height="0.4"></rect><rect x="58.781" y="44.731" transform="matrix(0.7735 -0.6338 0.6338 0.7735 -15.0499 47.7517)" width="1" height="0.4"></rect><rect x="54.438" y="48.231" transform="matrix(-0.6342 -0.7732 0.7732 -0.6342 51.609 121.8813)" width="0.4" height="1"></rect><rect x="55.986" y="46.965" transform="matrix(0.6327 0.7744 -0.7744 0.6327 57.393 -26.0764)" width="0.4" height="1"></rect><rect x="63.424" y="40.931" transform="matrix(-0.7737 0.6336 -0.6336 -0.7737 139.4403 32.4515)" width="1" height="0.4"></rect><rect x="57.534" y="45.698" transform="matrix(0.6327 0.7744 -0.7744 0.6327 56.9806 -27.7402)" width="0.4" height="1"></rect><rect x="62.177" y="41.898" transform="matrix(-0.6327 -0.7744 0.7744 -0.6327 69.0103 117.527)" width="0.4" height="1"></rect><rect x="60.329" y="43.464" transform="matrix(0.7739 -0.6333 0.6333 0.7739 -13.8996 48.3943)" width="1" height="0.4"></rect><rect x="58.13" y="52.786" transform="matrix(0.9116 0.4111 -0.4111 0.9116 26.967 -19.4188)" width="1" height="0.4"></rect><rect x="59.953" y="53.607" transform="matrix(-0.9117 -0.4109 0.4109 -0.9117 93.455 127.7034)" width="1" height="0.4"></rect><rect x="56.306" y="51.964" transform="matrix(0.9118 0.4107 -0.4107 0.9118 26.4364 -18.7283)" width="1" height="0.4"></rect><rect x="63.9" y="54.951" transform="matrix(0.4107 -0.9118 0.9118 0.4107 -12.7828 91.1239)" width="0.4" height="1"></rect><rect x="54.783" y="50.842" transform="matrix(-0.4102 0.912 -0.912 -0.4102 124.3612 22.2597)" width="0.4" height="1"></rect><rect x="61.777" y="54.429" transform="matrix(0.9118 0.4107 -0.4107 0.9118 27.9314 -20.7575)" width="1" height="0.4"></rect><rect x="65.424" y="56.072" transform="matrix(0.9116 0.4111 -0.4111 0.9116 28.963 -22.1268)" width="1" height="0.4"></rect><rect x="75.44" y="54.002" transform="matrix(0.2927 0.9562 -0.9562 0.2927 105.6142 -33.7785)" width="0.4" height="1"></rect><rect x="77.053" y="53.717" transform="matrix(-0.9563 0.2925 -0.2925 -0.9563 167.4858 82.7884)" width="1" height="0.4"></rect><rect x="79.265" y="52.832" transform="matrix(-0.2927 -0.9562 0.9562 -0.2927 51.7297 144.9281)" width="0.4" height="1"></rect><rect x="81.178" y="52.247" transform="matrix(-0.2927 -0.9562 0.9562 -0.2927 54.7611 146.0005)" width="0.4" height="1"></rect><rect x="71.615" y="55.172" transform="matrix(-0.2927 -0.9562 0.9562 -0.2927 39.603 140.637)" width="0.4" height="1"></rect><rect x="69.402" y="56.056" transform="matrix(0.9563 -0.2925 0.2925 0.9563 -13.3993 22.9104)" width="1" height="0.4"></rect><rect x="73.527" y="54.587" transform="matrix(0.2927 0.9562 -0.9562 0.2927 104.8203 -31.5363)" width="0.4" height="1"></rect><rect x="78.509" y="42.465" transform="matrix(-0.4571 -0.8894 0.8894 -0.4571 77.1815 132.4393)" width="1" height="0.4"></rect><rect x="80.338" y="46.023" transform="matrix(0.4571 0.8894 -0.8894 0.4571 84.9928 -46.8038)" width="1" height="0.4"></rect><rect x="79.423" y="44.244" transform="matrix(-0.4571 -0.8894 0.8894 -0.4571 76.9314 135.8443)" width="1" height="0.4"></rect><rect x="77.594" y="40.687" transform="matrix(0.4575 0.8892 -0.8892 0.4575 78.7194 -47.2615)" width="1" height="0.4"></rect><rect x="81.252" y="47.802" transform="matrix(-0.4571 -0.8894 0.8894 -0.4571 76.4319 142.6546)" width="1" height="0.4"></rect><rect x="82.166" y="49.581" transform="matrix(0.4575 0.8892 -0.8892 0.4575 89.1076 -46.5015)" width="1" height="0.4"></rect><rect x="68.33" y="38.961" width="1" height="0.4"></rect><rect x="70.33" y="38.961" width="1" height="0.4"></rect><rect x="72.33" y="38.961" width="1" height="0.4"></rect><rect x="74.33" y="38.961" width="1" height="0.4"></rect><rect x="41.084" y="55.825" transform="matrix(0.8895 -0.457 0.457 0.8895 -21.0053 25.193)" width="1" height="0.4"></rect><rect x="48.201" y="52.171" transform="matrix(-0.8895 0.457 -0.457 -0.8895 115.9503 76.7)" width="1" height="0.4"></rect><rect x="44.642" y="53.998" transform="matrix(0.8895 -0.457 0.457 0.8895 -19.7771 26.617)" width="1" height="0.4"></rect><rect x="42.863" y="54.912" transform="matrix(0.8894 -0.4571 0.4571 0.8894 -20.3977 25.9193)" width="1" height="0.4"></rect><rect x="46.722" y="52.784" transform="matrix(0.457 0.8895 -0.8895 0.457 72.8757 -12.8006)" width="0.4" height="1"></rect><rect x="50.28" y="50.957" transform="matrix(-0.457 -0.8895 0.8895 -0.457 27.7763 119.8717)" width="0.4" height="1"></rect><rect x="25.217" y="52.982" transform="matrix(-0.9649 -0.2627 0.2627 -0.9649 36.5592 111.2522)" width="1" height="0.4"></rect><rect x="32.937" y="55.082" transform="matrix(-0.9649 -0.2627 0.2627 -0.9649 51.1759 117.4057)" width="1" height="0.4"></rect><rect x="36.796" y="56.132" transform="matrix(-0.9649 -0.2626 0.2626 -0.9649 58.492 120.4797)" width="1" height="0.4"></rect><rect x="34.866" y="55.607" transform="matrix(0.9649 0.2627 -0.2627 0.9649 15.9028 -7.3307)" width="1" height="0.4"></rect><rect x="31.006" y="54.557" transform="matrix(0.9649 0.2627 -0.2627 0.9649 15.4915 -6.3536)" width="1" height="0.4"></rect><rect x="29.077" y="54.032" transform="matrix(-0.9649 -0.2627 0.2627 -0.9649 43.8675 114.329)" width="1" height="0.4"></rect><rect x="27.147" y="53.507" transform="matrix(0.9649 0.2626 -0.2626 0.9649 15.0725 -5.3749)" width="1" height="0.4"></rect><rect x="23.287" y="52.457" transform="matrix(-0.9649 -0.2627 0.2627 -0.9649 32.9055 109.7139)" width="1" height="0.4"></rect><rect x="23.272" y="47.517" transform="matrix(0.886 0.4637 -0.4637 0.886 24.9435 -5.4094)" width="0.4" height="1"></rect><rect x="24.199" y="45.745" transform="matrix(-0.886 -0.4637 0.4637 -0.886 24.5712 98.5324)" width="0.4" height="1"></rect><rect x="25.755" y="42.502" transform="matrix(0.4639 -0.8859 0.8859 0.4639 -23.7538 46.1493)" width="1" height="0.4"></rect><rect x="22.344" y="49.289" transform="matrix(-0.886 -0.4637 0.4637 -0.886 19.4294 104.3555)" width="0.4" height="1"></rect><rect x="26.682" y="40.73" transform="matrix(0.4639 -0.8859 0.8859 0.4639 -21.687 46.0208)" width="1" height="0.4"></rect><rect x="25.127" y="43.973" transform="matrix(0.886 0.4637 -0.4637 0.886 23.5117 -6.674)" width="0.4" height="1"></rect><rect x="30.108" y="38.961" width="1" height="0.4"></rect><rect x="34.108" y="38.961" width="1" height="0.4"></rect><rect x="32.108" y="38.961" width="1" height="0.4"></rect><rect x="36.108" y="38.961" width="1" height="0.4"></rect><rect x="64.893" y="58.115" transform="matrix(0.8472 -0.5313 0.5313 0.8472 -20.9893 43.6521)" width="1" height="0.4"></rect><rect x="63.199" y="59.177" transform="matrix(0.8472 -0.5313 0.5313 0.8472 -21.8125 42.9139)" width="1" height="0.4"></rect><rect x="60.109" y="61.001" transform="matrix(0.532 0.8468 -0.8468 0.532 80.3035 -22.283)" width="0.4" height="1"></rect><rect x="61.504" y="60.239" transform="matrix(0.8473 -0.5311 0.5311 0.8473 -22.6309 42.154)" width="1" height="0.4"></rect><rect x="45.198" y="61.372" transform="matrix(0.7942 0.6076 -0.6076 0.7942 46.8171 -15.0973)" width="1" height="0.4"></rect><path d="M41.452,58.071L40.72,57.51c0.082-0.159,0.14-0.332,0.14-0.522c0-0.637-0.515-1.152-1.152-1.152s-1.152,0.516-1.152,1.152   c0,0.636,0.516,1.153,1.152,1.153c0.3,0,0.568-0.122,0.773-0.31l0.728,0.557L41.452,58.071z"></path><rect x="42.022" y="58.941" transform="matrix(0.7942 0.6076 -0.6076 0.7942 44.6862 -13.6676)" width="1" height="0.4"></rect><rect x="43.61" y="60.157" transform="matrix(0.7942 0.6077 -0.6077 0.7942 45.7584 -14.3823)" width="1" height="0.4"></rect><rect x="50.624" y="65.792" transform="matrix(0.7646 0.6445 -0.6445 0.7646 54.566 -17.4152)" width="1" height="0.4"></rect><rect x="49.095" y="64.503" transform="matrix(0.7644 0.6447 -0.6447 0.7644 53.4009 -16.7319)" width="1" height="0.4"></rect><rect x="53.831" y="65.792" transform="matrix(0.7646 -0.6445 0.6445 0.7646 -29.7427 50.5499)" width="1" height="0.4"></rect><rect x="55.66" y="64.203" transform="matrix(0.6447 0.7644 -0.7644 0.6447 69.3043 -19.7129)" width="0.4" height="1"></rect><rect x="52.771" y="62.892" width="1" height="0.4"></rect><rect x="54.771" y="62.892" width="1" height="0.4"></rect><rect x="50.771" y="62.892" width="1" height="0.4"></rect><rect x="50.127" y="55.865" transform="matrix(0.9305 0.3663 -0.3663 0.9305 24.1467 -14.518)" width="0.4" height="1"></rect><rect x="49.396" y="57.726" transform="matrix(0.9305 0.3663 -0.3663 0.9305 24.7778 -14.1208)" width="0.4" height="1"></rect><rect x="51.589" y="52.142" transform="matrix(0.9305 0.3663 -0.3663 0.9305 22.8845 -15.3127)" width="0.4" height="1"></rect><rect x="50.858" y="54.003" transform="matrix(0.9305 0.3663 -0.3663 0.9305 23.5157 -14.9153)" width="0.4" height="1"></rect><rect x="48.664" y="59.588" transform="matrix(0.9305 0.3663 -0.3663 0.9305 25.409 -13.7234)" width="0.4" height="1"></rect><rect x="54.6" y="56.157" transform="matrix(0.3686 0.9296 -0.9296 0.3686 87.1782 -15.6372)" width="1" height="0.4"></rect><rect x="53.425" y="52.139" transform="matrix(0.9296 -0.3684 0.3684 0.9296 -15.6219 23.461)" width="0.4" height="1"></rect><rect x="56.075" y="59.875" transform="matrix(0.3686 0.9296 -0.9296 0.3686 91.5657 -14.6603)" width="1" height="0.4"></rect><rect x="53.862" y="54.298" transform="matrix(0.3686 0.9296 -0.9296 0.3686 84.9844 -16.1251)" width="1" height="0.4"></rect><rect x="55.638" y="57.716" transform="matrix(-0.9296 0.3684 -0.3684 -0.9296 129.1965 91.7636)" width="0.4" height="1"></rect><rect x="60.548" y="68.506" transform="matrix(0.5039 0.8638 -0.8638 0.5039 89.6312 -18.6459)" width="1" height="0.4"></rect><rect x="58.532" y="65.051" transform="matrix(-0.5041 -0.8636 0.8636 -0.5041 32.4373 149.1269)" width="1" height="0.4"></rect><rect x="63.572" y="73.688" transform="matrix(0.5043 0.8635 -0.8635 0.5043 95.5685 -18.7005)" width="1" height="0.4"></rect><rect x="62.564" y="71.96" transform="matrix(0.5039 0.8638 -0.8638 0.5039 93.6153 -18.6735)" width="1" height="0.4"></rect><rect x="64.58" y="75.415" transform="matrix(0.5039 0.8638 -0.8638 0.5039 97.5994 -18.7012)" width="1" height="0.4"></rect><rect x="61.856" y="69.933" transform="matrix(-0.8643 0.503 -0.503 -0.8643 151.116 100.0976)" width="0.4" height="1"></rect><rect x="59.54" y="66.778" transform="matrix(0.5039 0.8638 -0.8638 0.5039 87.6388 -18.632)" width="1" height="0.4"></rect><rect x="68.602" y="76.773" transform="matrix(-0.2149 -0.9766 0.9766 -0.2149 8.1162 161.0716)" width="0.4" height="1"></rect><rect x="70.556" y="76.346" transform="matrix(-0.2149 -0.9766 0.9766 -0.2149 10.9074 162.46)" width="0.4" height="1"></rect><rect x="72.509" y="75.918" transform="matrix(-0.2149 -0.9766 0.9766 -0.2149 13.6988 163.8486)" width="0.4" height="1"></rect><rect x="74.463" y="75.49" transform="matrix(-0.2149 -0.9766 0.9766 -0.2149 16.4899 165.2369)" width="0.4" height="1"></rect><rect x="76.417" y="75.062" transform="matrix(-0.2149 -0.9766 0.9766 -0.2149 19.2813 166.6255)" width="0.4" height="1"></rect><rect x="74.375" y="66.89" transform="matrix(-0.5889 -0.8082 0.8082 -0.5889 64.7488 167.1138)" width="1" height="0.4"></rect><rect x="75.552" y="68.506" transform="matrix(0.5889 0.8082 -0.8082 0.5889 86.7906 -33.2211)" width="1" height="0.4"></rect><rect x="76.73" y="70.123" transform="matrix(-0.5889 -0.8082 0.8082 -0.5889 65.8786 174.1543)" width="1" height="0.4"></rect><rect x="70.841" y="62.041" transform="matrix(-0.5889 -0.8082 0.8082 -0.5889 63.053 156.553)" width="1" height="0.4"></rect><rect x="69.663" y="60.425" transform="matrix(0.5889 0.8082 -0.8082 0.5889 77.8383 -31.7836)" width="1" height="0.4"></rect><rect x="72.019" y="63.657" transform="matrix(0.5889 0.8082 -0.8082 0.5889 81.419 -32.3585)" width="1" height="0.4"></rect><rect x="68.485" y="58.808" transform="matrix(-0.5889 -0.8082 0.8082 -0.5889 61.9223 149.5121)" width="1" height="0.4"></rect><rect x="77.908" y="71.739" transform="matrix(-0.5892 -0.808 0.808 -0.5892 66.4859 177.6791)" width="1" height="0.4"></rect><rect x="73.496" y="64.974" transform="matrix(0.8084 -0.5886 0.5886 0.8084 -24.4196 55.9217)" width="0.4" height="1"></rect><rect x="39.042" y="70.98" transform="matrix(0.9995 0.0318 -0.0318 0.9995 2.2906 -1.2106)" width="0.4" height="1"></rect><rect x="38.913" y="74.978" transform="matrix(-0.9995 -0.0318 0.0318 -0.9995 75.808 152.161)" width="0.4" height="1"></rect><rect x="39.106" y="68.981" transform="matrix(0.9995 0.0318 -0.0318 0.9995 2.2272 -1.2136)" width="0.4" height="1"></rect><rect x="38.977" y="72.979" transform="matrix(0.9995 0.0318 -0.0318 0.9995 2.3541 -1.2075)" width="0.4" height="1"></rect><rect x="39.17" y="66.982" transform="matrix(0.9995 0.0318 -0.0318 0.9995 2.1637 -1.2167)" width="0.4" height="1"></rect><rect x="39.428" y="58.987" transform="matrix(0.9995 0.0318 -0.0318 0.9995 1.9098 -1.2289)" width="0.4" height="1"></rect><rect x="39.364" y="60.986" transform="matrix(0.9995 0.0318 -0.0318 0.9995 1.9733 -1.2259)" width="0.4" height="1"></rect><rect x="39.235" y="64.983" transform="matrix(0.9995 0.0318 -0.0318 0.9995 2.1002 -1.2197)" width="0.4" height="1"></rect><rect x="39.299" y="62.985" transform="matrix(0.9995 0.0318 -0.0318 0.9995 2.0368 -1.2228)" width="0.4" height="1"></rect><rect x="66.449" y="72.965" transform="matrix(0.9987 0.0513 -0.0513 0.9987 3.8548 -3.3209)" width="0.4" height="1"></rect><rect x="66.763" y="66.973" transform="matrix(0.9987 0.0513 -0.0513 0.9987 3.5479 -3.3449)" width="0.4" height="1"></rect><rect x="66.553" y="70.968" transform="matrix(0.9987 0.0513 -0.0513 0.9987 3.7525 -3.3289)" width="0.4" height="1"></rect><rect x="66.658" y="68.971" transform="matrix(0.9987 0.0513 -0.0513 0.9987 3.6502 -3.3369)" width="0.4" height="1"></rect><rect x="66.344" y="74.962" transform="matrix(-0.9987 -0.0513 0.0513 -0.9987 129.1304 154.2377)" width="0.4" height="1"></rect><rect x="67.182" y="58.984" transform="matrix(-0.9987 -0.0513 0.0513 -0.9987 131.6243 122.3456)" width="0.4" height="1"></rect><rect x="66.868" y="64.976" transform="matrix(0.9987 0.0513 -0.0513 0.9987 3.4457 -3.3529)" width="0.4" height="1"></rect><rect x="67.077" y="60.982" transform="matrix(0.9987 0.0513 -0.0513 0.9987 3.2411 -3.3689)" width="0.4" height="1"></rect><rect x="66.972" y="62.979" transform="matrix(0.9987 0.0513 -0.0513 0.9987 3.3434 -3.3609)" width="0.4" height="1"></rect><rect x="43.178" y="69.92" transform="matrix(-0.8616 -0.5077 0.5077 -0.8616 45.0009 153.1129)" width="0.4" height="1"></rect><rect x="41.152" y="73.369" transform="matrix(0.8616 0.5077 -0.5077 0.8616 43.2253 -10.7659)" width="0.4" height="1"></rect><rect x="39.839" y="75.394" transform="matrix(-0.5064 0.8623 -0.8623 -0.5064 125.9507 79.0864)" width="1" height="0.4"></rect><rect x="45.204" y="66.472" transform="matrix(-0.8626 -0.5058 0.5058 -0.8626 50.6934 147.7105)" width="0.4" height="1"></rect><rect x="44.191" y="68.196" transform="matrix(0.8626 0.5058 -0.5058 0.8626 40.8479 -13.0177)" width="0.4" height="1"></rect><rect x="46.217" y="64.748" transform="matrix(0.8626 0.5058 -0.5058 0.8626 39.3816 -14.5165)" width="0.4" height="1"></rect><rect x="41.865" y="71.945" transform="matrix(-0.5067 0.8621 -0.8621 -0.5067 126.0288 72.1794)" width="1" height="0.4"></rect><rect x="28.289" y="75.324" transform="matrix(-0.976 -0.2178 0.2178 -0.976 40.4408 155.5054)" width="1" height="0.4"></rect><rect x="34.145" y="76.629" transform="matrix(-0.9761 -0.2173 0.2173 -0.9761 51.7683 159.3511)" width="1" height="0.4"></rect><rect x="36.097" y="77.064" transform="matrix(-0.9761 -0.2173 0.2173 -0.9761 55.5314 160.635)" width="1" height="0.4"></rect><rect x="32.193" y="76.194" transform="matrix(-0.9761 -0.2173 0.2173 -0.9761 48.0052 158.0672)" width="1" height="0.4"></rect><rect x="30.241" y="75.759" transform="matrix(-0.976 -0.2178 0.2178 -0.976 44.2035 156.7902)" width="1" height="0.4"></rect><rect x="36.72" y="60.02" transform="matrix(-0.7851 -0.6193 0.6193 -0.7851 28.4256 130.9019)" width="0.401" height="1"></rect><rect x="33.003" y="64.729" transform="matrix(-0.7851 -0.6193 0.6193 -0.7851 18.8731 137.0067)" width="0.401" height="1"></rect><rect x="35.181" y="61.89" transform="matrix(0.6195 -0.785 0.785 0.6195 -35.1637 51.6344)" width="1" height="0.401"></rect><rect x="34.241" y="63.16" transform="matrix(0.7851 0.6193 -0.6193 0.7851 46.8266 -7.6523)" width="0.401" height="1"></rect><rect x="37.959" y="58.45" transform="matrix(0.7851 0.6193 -0.6193 0.7851 44.7087 -10.9667)" width="0.401" height="1"></rect><rect x="31.464" y="66.599" transform="matrix(0.6195 -0.785 0.785 0.6195 -40.275 50.5083)" width="1" height="0.401"></rect><rect x="27.746" y="71.309" transform="matrix(0.6195 -0.785 0.785 0.6195 -45.3866 49.3818)" width="1" height="0.401"></rect><rect x="26.806" y="72.579" transform="matrix(-0.7851 -0.6193 0.6193 -0.7851 2.9507 147.1809)" width="0.401" height="1"></rect><rect x="30.524" y="67.869" transform="matrix(-0.7851 -0.6193 0.6193 -0.7851 12.5041 141.0764)" width="0.401" height="1"></rect><rect x="29.285" y="69.439" transform="matrix(-0.7851 -0.6193 0.6193 -0.7851 9.3197 143.1113)" width="0.401" height="1"></rect><rect x="47.802" y="82.549" transform="matrix(0.8823 0.4707 -0.4707 0.8823 44.6341 -12.9959)" width="1" height="0.4"></rect><rect x="44.273" y="80.667" transform="matrix(-0.8825 -0.4703 0.4703 -0.8825 46.2534 173.2885)" width="1" height="0.4"></rect><rect x="42.509" y="79.726" transform="matrix(-0.8825 -0.4703 0.4703 -0.8825 43.3739 170.6873)" width="1" height="0.4"></rect><rect x="49.568" y="83.49" transform="matrix(0.8825 0.4703 -0.4703 0.8825 45.2429 -13.7139)" width="1" height="0.4"></rect><rect x="46.038" y="81.608" transform="matrix(-0.8823 -0.4707 0.4707 -0.8823 49.0921 175.8913)" width="1" height="0.4"></rect><rect x="40.743" y="78.784" transform="matrix(-0.8823 -0.4707 0.4707 -0.8823 40.4553 168.0851)" width="1" height="0.4"></rect><rect x="66.536" y="80.274" transform="matrix(0.9945 -0.1051 0.1051 0.9945 -8.1172 7.4587)" width="0.4" height="1"></rect><rect x="59.728" y="80.909" transform="matrix(0.8823 -0.4707 0.4707 0.8823 -31.0885 37.8953)" width="1" height="0.4"></rect><rect x="66.747" y="82.262" transform="matrix(0.9945 -0.1051 0.1051 0.9945 -8.325 7.4919)" width="0.4" height="1"></rect><rect x="63.558" y="78.728" transform="matrix(-0.4715 -0.8819 0.8819 -0.4715 23.9484 172.8082)" width="0.4" height="1"></rect><rect x="66.658" y="84.551" transform="matrix(-0.1055 -0.9944 0.9944 -0.1055 -10.0347 160.4755)" width="1" height="0.4"></rect><rect x="61.493" y="79.969" transform="matrix(0.8825 -0.4703 0.4703 0.8825 -30.42 38.5755)" width="1" height="0.4"></rect><rect x="56.198" y="82.791" transform="matrix(0.8825 -0.4703 0.4703 0.8825 -32.3695 36.4169)" width="1" height="0.4"></rect><rect x="54.433" y="83.732" transform="matrix(0.8825 -0.4703 0.4703 0.8825 -33.0194 35.6975)" width="1" height="0.4"></rect><rect x="57.963" y="81.85" transform="matrix(0.8823 -0.4707 0.4707 0.8823 -31.739 37.1754)" width="1" height="0.4"></rect><rect x="38.559" y="79.793" transform="matrix(-0.9937 -0.1123 0.1123 -0.9937 68.2559 164.4304)" width="0.4" height="1"></rect><rect x="38.114" y="83.768" transform="matrix(-0.9937 -0.1123 0.1123 -0.9937 66.9226 172.3055)" width="0.4" height="1"></rect><rect x="38.337" y="81.78" transform="matrix(-0.9937 -0.1123 0.1123 -0.9937 67.5898 168.3675)" width="0.4" height="1"></rect><rect x="37.892" y="85.755" transform="matrix(-0.9937 -0.1123 0.1123 -0.9937 66.2555 176.243)" width="0.4" height="1"></rect><rect x="50.08" y="85.12" transform="matrix(-0.205 -0.9788 0.9788 -0.205 -23.2119 152.3869)" width="0.4" height="1"></rect><rect x="46.165" y="85.939" transform="matrix(-0.205 -0.9788 0.9788 -0.205 -28.7316 149.5423)" width="0.4" height="1"></rect><rect x="40.293" y="87.169" transform="matrix(-0.205 -0.9788 0.9788 -0.205 -37.0116 145.2756)" width="0.4" height="1"></rect><rect x="48.123" y="85.53" transform="matrix(-0.205 -0.9788 0.9788 -0.205 -25.9717 150.9646)" width="0.4" height="1"></rect><rect x="44.208" y="86.35" transform="matrix(-0.205 -0.9788 0.9788 -0.205 -31.4919 148.1201)" width="0.4" height="1"></rect><rect x="42.25" y="86.759" transform="matrix(-0.205 -0.9788 0.9788 -0.205 -34.2517 146.6978)" width="0.4" height="1"></rect><rect x="60.535" y="86.581" transform="matrix(-0.9801 -0.1987 0.1987 -0.9801 103.605 183.9612)" width="1" height="0.4"></rect><rect x="58.575" y="86.185" transform="matrix(-0.9801 -0.1983 0.1983 -0.9801 99.8482 182.7665)" width="1" height="0.4"></rect><rect x="56.614" y="85.788" transform="matrix(-0.9802 -0.1982 0.1982 -0.9802 96.0545 181.589)" width="1" height="0.4"></rect><rect x="54.654" y="85.391" transform="matrix(-0.9801 -0.1987 0.1987 -0.9801 92.1971 180.4363)" width="1" height="0.4"></rect><rect x="62.495" y="86.978" transform="matrix(-0.9801 -0.1983 0.1983 -0.9801 107.4538 185.115)" width="1" height="0.4"></rect><rect x="64.455" y="87.374" transform="matrix(-0.9801 -0.1983 0.1983 -0.9801 111.2572 186.2888)" width="1" height="0.4"></rect><rect x="41.635" y="35.697" transform="matrix(-0.6883 0.7254 -0.7254 -0.6883 97.178 30.0407)" width="1" height="0.4"></rect><rect x="40.559" y="36.848" transform="matrix(0.7252 0.6886 -0.6886 0.7252 36.9175 -17.8006)" width="0.4" height="1"></rect><rect x="43.312" y="33.947" transform="matrix(-0.7252 -0.6886 0.6886 -0.7252 51.3479 89.3876)" width="0.4" height="1"></rect><rect x="62.833" y="35.604" transform="matrix(-0.6657 -0.7462 0.7462 -0.6657 78.7728 106.9011)" width="1" height="0.4"></rect><rect x="61.502" y="34.113" transform="matrix(-0.6662 -0.7458 0.7458 -0.6662 77.7155 103.4113)" width="1" height="0.4"></rect><rect x="64.165" y="37.097" transform="matrix(0.6662 0.7458 -0.7458 0.6662 49.4019 -35.7762)" width="1" height="0.4"></rect><rect x="46.848" y="32.839" width="1" height="0.4"></rect><rect x="54.848" y="32.839" width="1" height="0.4"></rect><rect x="50.848" y="32.839" width="1" height="0.4"></rect><rect x="52.848" y="32.839" width="1" height="0.4"></rect><rect x="48.848" y="32.839" width="1" height="0.4"></rect><rect x="56.848" y="32.839" width="1" height="0.4"></rect><rect x="64.712" y="30.571" transform="matrix(-0.4374 -0.8993 0.8993 -0.4374 65.3637 103.0338)" width="0.4" height="1"></rect><rect x="70.107" y="27.946" transform="matrix(-0.4374 -0.8993 0.8993 -0.4374 75.479 104.1131)" width="0.4" height="1"></rect><rect x="73.704" y="26.196" transform="matrix(-0.4374 -0.8993 0.8993 -0.4374 82.223 104.8322)" width="0.4" height="1"></rect><rect x="75.502" y="25.321" transform="matrix(-0.4374 -0.8993 0.8993 -0.4374 85.5951 105.1918)" width="0.4" height="1"></rect><rect x="62.913" y="31.446" transform="matrix(-0.4374 -0.8993 0.8993 -0.4374 61.9915 102.6742)" width="0.4" height="1"></rect><rect x="68.308" y="28.821" transform="matrix(0.4374 0.8993 -0.8993 0.4374 64.909 -45.1113)" width="0.4" height="1"></rect><rect x="71.905" y="27.071" transform="matrix(-0.4374 -0.8993 0.8993 -0.4374 78.8512 104.4727)" width="0.4" height="1"></rect><rect x="78.799" y="23.871" transform="matrix(-0.8992 0.4376 -0.4376 -0.8992 161.1358 11.0128)" width="1" height="0.4"></rect><rect x="77.301" y="24.446" transform="matrix(-0.4374 -0.8993 0.8993 -0.4374 88.9669 105.5513)" width="0.4" height="1"></rect><rect x="66.51" y="29.696" transform="matrix(0.4374 0.8993 -0.8993 0.4374 64.684 -43.0017)" width="0.4" height="1"></rect><rect x="79.511" y="30.538" transform="matrix(0.9553 0.2956 -0.2956 0.9553 12.7388 -22.1776)" width="0.4" height="1"></rect><rect x="78.622" y="32.75" transform="matrix(0.2943 -0.9557 0.9557 0.2943 24.344 98.8689)" width="1" height="0.4"></rect><rect x="81.277" y="24.804" transform="matrix(0.9553 0.2956 -0.2956 0.9553 11.1226 -22.9561)" width="0.4" height="1"></rect><rect x="79.8" y="28.927" transform="matrix(0.2945 -0.9557 0.9557 0.2945 28.8185 97.2896)" width="1" height="0.4"></rect><rect x="77.744" y="36.272" transform="matrix(-0.9553 -0.2956 0.2956 -0.9553 141.5332 94.9439)" width="0.4" height="1"></rect><rect x="80.689" y="26.716" transform="matrix(0.9553 0.2956 -0.2956 0.9553 11.6613 -22.6966)" width="0.4" height="1"></rect><rect x="78.333" y="34.361" transform="matrix(0.9553 0.2956 -0.2956 0.9553 13.8163 -21.6585)" width="0.4" height="1"></rect><rect x="24.44" y="26.653" transform="matrix(-0.9606 0.2779 -0.2779 -0.9606 55.8562 46.3869)" width="0.401" height="1"></rect><rect x="25.549" y="30.496" transform="matrix(-0.9606 0.2779 -0.2779 -0.9606 59.0994 53.6131)" width="0.401" height="1"></rect><rect x="25.804" y="32.717" transform="matrix(-0.2774 -0.9607 0.9607 -0.2774 1.9767 67.3211)" width="1" height="0.401"></rect><rect x="27.214" y="36.26" transform="matrix(-0.9606 0.2779 -0.2779 -0.9606 63.9651 64.4527)" width="0.401" height="1"></rect><rect x="26.359" y="34.639" transform="matrix(-0.2779 -0.9606 0.9606 -0.2779 0.8562 70.3209)" width="1" height="0.4"></rect><rect x="24.695" y="28.874" transform="matrix(0.2773 0.9608 -0.9608 0.2773 46.1423 -3.1948)" width="1" height="0.401"></rect><rect x="23.585" y="25.031" transform="matrix(0.2774 0.9607 -0.9607 0.2774 41.6439 -4.9082)" width="1" height="0.401"></rect><rect x="33.152" y="27.28" transform="matrix(-0.8959 -0.4443 0.4443 -0.8959 51.5917 67.05)" width="1" height="0.4"></rect><rect x="35.243" y="27.869" transform="matrix(0.4443 -0.8959 0.8959 0.4443 -5.7192 47.5186)" width="0.4" height="1"></rect><rect x="29.569" y="25.501" transform="matrix(-0.8956 -0.4449 0.4449 -0.8956 45.5658 62.0955)" width="1" height="0.4"></rect><rect x="25.987" y="23.722" transform="matrix(-0.8958 -0.4445 0.4445 -0.8958 39.5808 57.1236)" width="1" height="0.4"></rect><rect x="31.361" y="26.391" transform="matrix(-0.8956 -0.4449 0.4449 -0.8956 48.566 64.5789)" width="1" height="0.4"></rect><rect x="42.108" y="31.727" transform="matrix(-0.8956 -0.4449 0.4449 -0.8956 66.5648 79.4767)" width="1" height="0.4"></rect><rect x="38.526" y="29.949" transform="matrix(-0.8956 -0.4449 0.4449 -0.8956 60.5651 74.5111)" width="1" height="0.4"></rect><rect x="36.734" y="29.059" transform="matrix(-0.8957 -0.4447 0.4447 -0.8957 57.5747 72.0234)" width="1" height="0.4"></rect><rect x="27.778" y="24.611" transform="matrix(-0.8956 -0.4449 0.4449 -0.8956 42.5665 59.6123)" width="1" height="0.4"></rect><rect x="40.318" y="30.838" transform="matrix(0.8958 0.4445 -0.4445 0.8958 18.0492 -14.9079)" width="1" height="0.4"></rect><rect x="43.63" y="30.445" transform="matrix(0.2875 0.9578 -0.9578 0.2875 60.7921 -20.4324)" width="1" height="0.4"></rect><rect x="39.335" y="14.819" transform="matrix(0.9576 -0.2882 0.2882 0.9576 -2.7376 12.0458)" width="0.4" height="1"></rect><rect x="42.207" y="24.398" transform="matrix(0.9576 -0.2882 0.2882 0.9576 -5.3768 13.2802)" width="0.4" height="1"></rect><rect x="41.632" y="22.482" transform="matrix(-0.9576 0.2882 -0.2882 -0.9576 88.513 32.9306)" width="0.4" height="1"></rect><rect x="40.183" y="18.951" transform="matrix(-0.2875 -0.9578 0.9578 -0.2875 34.0392 63.622)" width="1" height="0.4"></rect><rect x="39.609" y="17.035" transform="matrix(0.2872 0.9579 -0.9579 0.2872 45.0975 -26.1344)" width="1" height="0.4"></rect><rect x="41.058" y="20.566" transform="matrix(-0.9576 0.2882 -0.2882 -0.9576 86.8367 29.3459)" width="0.4" height="1"></rect><rect x="43.355" y="28.229" transform="matrix(-0.9576 0.2882 -0.2882 -0.9576 93.5427 43.6841)" width="0.4" height="1"></rect><rect x="42.781" y="26.313" transform="matrix(-0.9576 0.2882 -0.2882 -0.9576 91.8665 40.0999)" width="0.4" height="1"></rect><rect x="61.893" y="28.211" transform="matrix(0.9619 0.2734 -0.2734 0.9619 10.2166 -15.8839)" width="0.4" height="1"></rect><rect x="62.684" y="24.662" transform="matrix(-0.2724 0.9622 -0.9622 -0.2724 104.3173 -29.1603)" width="1" height="0.4"></rect><rect x="63.53" y="22.438" transform="matrix(0.9619 0.2734 -0.2734 0.9619 8.7006 -16.5516)" width="0.4" height="1"></rect><rect x="65.167" y="16.666" transform="matrix(0.9619 0.2734 -0.2734 0.9619 7.1846 -17.2192)" width="0.4" height="1"></rect><rect x="62.438" y="26.286" transform="matrix(-0.9619 -0.2734 0.2734 -0.9619 115.5656 69.6788)" width="0.4" height="1"></rect><rect x="61.347" y="30.134" transform="matrix(0.9619 0.2734 -0.2734 0.9619 10.7218 -15.6614)" width="0.4" height="1"></rect><rect x="64.076" y="20.514" transform="matrix(-0.9619 -0.2734 0.2734 -0.9619 120.356 58.802)" width="0.4" height="1"></rect><rect x="64.621" y="18.59" transform="matrix(-0.9619 -0.2734 0.2734 -0.9619 121.9521 55.1763)" width="0.4" height="1"></rect><rect x="51.937" y="13.463" width="1" height="0.4"></rect><rect x="47.937" y="13.463" width="1" height="0.4"></rect><rect x="59.937" y="13.463" width="1" height="0.4"></rect><rect x="55.937" y="13.463" width="1" height="0.4"></rect><rect x="57.937" y="13.463" width="1" height="0.4"></rect><rect x="53.937" y="13.463" width="1" height="0.4"></rect><rect x="43.937" y="13.463" width="1" height="0.4"></rect><rect x="41.937" y="13.463" width="1" height="0.4"></rect><rect x="61.937" y="13.463" width="1" height="0.4"></rect><rect x="63.937" y="13.463" width="1" height="0.4"></rect><rect x="49.937" y="13.463" width="1" height="0.4"></rect><rect x="45.937" y="13.463" width="1" height="0.4"></rect><rect x="29.713" y="18.358" transform="matrix(0.4954 0.8687 -0.8687 0.4954 31.4776 -16.4685)" width="0.4" height="1"></rect><rect x="27.975" y="19.347" transform="matrix(0.4954 0.8687 -0.8687 0.4954 31.46 -14.4597)" width="0.4" height="1"></rect><rect x="26.237" y="20.337" transform="matrix(0.4954 0.8687 -0.8687 0.4954 31.4425 -12.4502)" width="0.4" height="1"></rect><rect x="36.665" y="14.4" transform="matrix(0.4954 0.8687 -0.8687 0.4954 31.5478 -24.5054)" width="0.4" height="1"></rect><rect x="31.451" y="17.368" transform="matrix(0.4954 0.8687 -0.8687 0.4954 31.495 -18.478)" width="0.4" height="1"></rect><rect x="34.927" y="15.389" transform="matrix(0.4954 0.8687 -0.8687 0.4954 31.5301 -22.4964)" width="0.4" height="1"></rect><rect x="33.189" y="16.379" transform="matrix(0.4954 0.8687 -0.8687 0.4954 31.5128 -20.4871)" width="0.4" height="1"></rect><rect x="78.604" y="20.432" transform="matrix(0.881 0.4732 -0.4732 0.881 19.1798 -34.9757)" width="1" height="0.4"></rect><rect x="71.556" y="16.647" transform="matrix(0.881 0.4732 -0.4732 0.881 16.5497 -32.0912)" width="1" height="0.4"></rect><rect x="73.318" y="17.593" transform="matrix(0.881 0.4732 -0.4732 0.881 17.2072 -32.8122)" width="1" height="0.4"></rect><rect x="68.032" y="14.754" transform="matrix(0.881 0.4732 -0.4732 0.881 15.2346 -30.649)" width="1" height="0.4"></rect><rect x="76.842" y="19.486" transform="matrix(0.881 0.4732 -0.4732 0.881 18.5223 -34.2544)" width="1" height="0.4"></rect><rect x="75.08" y="18.539" transform="matrix(0.881 0.4732 -0.4732 0.881 17.8648 -33.5334)" width="1" height="0.4"></rect><rect x="69.794" y="15.701" transform="matrix(0.881 0.4732 -0.4732 0.881 15.8922 -31.37)" width="1" height="0.4"></rect></g></svg>